# xmcd CD database file
#
# Track frame offsets:
#	150
#	19318
#	35225
#	51855
#	72710
#	87665
#	112788
#	131203
#	153368
#	169528
#
# Disc length: 2577 seconds
#
# Revision: 2
# Processed by: cddbd v1.5.1PL2 Copyright (c) Steve Scherf et al.
# Submitted via: CDex 1.51
#
DISCID=8d0a0f0a
DTITLE=John Slaughter Blues Band - a New Coat of Paint
DYEAR=1992
DGENRE=Blues
TTITLE0=Riding with the King
TTITLE1=Walking on Sunset
TTITLE2=I believe to my Soul
TTITLE3=Paint my Mailbox Blue
TTITLE4=Watch your Step
TTITLE5=Cold Cold Feeling
TTITLE6=Woke up this morning
TTITLE7=Help me
TTITLE8=Don't  go to strangers
TTITLE9=A new coat of Paint
EXTD=1992\n\n\nsubmitted by Stamppot YEAR: 1992
EXTT0=
EXTT1=
EXTT2=
EXTT3=
EXTT4=
EXTT5=
EXTT6=
EXTT7=
EXTT8=
EXTT9=
PLAYORDER=
